<svg xmlns="http://www.w3.org/2000/svg" width="17.5" height="17.5" viewBox="0 0 17.5 17.5">
  <path id="cart-shopping-fast_3_" data-name="cart-shopping-fast(3)" d="M17,2.99a2.176,2.176,0,0,0-1.692-.8H5.279L5.25,1.932A2.191,2.191,0,0,0,3.077,0h-.89a.729.729,0,0,0,0,1.458h.89A.726.726,0,0,1,3.8,2.1l1.006,8.531a3.65,3.65,0,0,0,3.624,3.223h6.154a.729.729,0,1,0,0-1.458H8.429a2.192,2.192,0,0,1-2.064-1.458h6.876a3.647,3.647,0,0,0,3.573-2.931l.642-3.2A2.18,2.18,0,0,0,17,2.99Zm-.977,1.531-.642,3.2a2.192,2.192,0,0,1-2.144,1.757H6.14L5.454,3.646h9.858a.708.708,0,0,1,.561.27A.728.728,0,0,1,16.027,4.521ZM8.021,16.042a1.458,1.458,0,1,1-1.458-1.458A1.463,1.463,0,0,1,8.021,16.042Zm6.562,0a1.458,1.458,0,1,1-1.458-1.458A1.463,1.463,0,0,1,14.583,16.042ZM0,4.375a.731.731,0,0,1,.729-.729H1.852a.729.729,0,0,1,0,1.458H.729A.731.731,0,0,1,0,4.375ZM0,7.292a.731.731,0,0,1,.729-.729H2.188a.729.729,0,0,1,0,1.458H.729A.731.731,0,0,1,0,7.292Zm3.646,2.917a.731.731,0,0,1-.729.729H.729a.729.729,0,0,1,0-1.458H2.917A.731.731,0,0,1,3.646,10.208Z" fill="#008585"/>
</svg>
