<svg xmlns="http://www.w3.org/2000/svg" width="17" height="17" viewBox="0 0 17 17">
  <path id="cart-arrow-down" d="M16.957,4.668l-.623,3.11a3.554,3.554,0,0,1-3.471,2.847h-8.1a2.122,2.122,0,0,0,2,1.417h6.687a.708.708,0,1,1,0,1.417H6.772a3.551,3.551,0,0,1-3.52-3.131L2.274,2.04a.71.71,0,0,0-.7-.623H.708A.708.708,0,0,1,.708,0h.864A2.128,2.128,0,0,1,3.683,1.877l.028.248H6.375a.708.708,0,1,1,0,1.417H3.882l.666,5.667h8.316A2.13,2.13,0,0,0,14.946,7.5l.623-3.11a.715.715,0,0,0-.694-.85H12.042a.708.708,0,0,1,0-1.417h2.833a2.125,2.125,0,0,1,2.082,2.543Zm-12,9.5a1.417,1.417,0,1,0,1.417,1.417A1.421,1.421,0,0,0,4.958,14.167Zm7.083,0a1.417,1.417,0,1,0,1.417,1.417A1.421,1.421,0,0,0,12.042,14.167ZM6.566,5.135a.706.706,0,0,0,.035,1l1.1,1.034a2.123,2.123,0,0,0,1.509.623,2.079,2.079,0,0,0,1.48-.609l1.126-1.048A.707.707,0,1,0,10.859,5.1l-.935.871V.708a.708.708,0,0,0-1.417,0V5.971L7.572,5.1a.706.706,0,0,0-1,.035Z" fill="#31353b"/>
</svg>
