<svg xmlns="http://www.w3.org/2000/svg" width="19.165" height="19.404" viewBox="0 0 19.165 19.404">
  <path id="home" d="M17.982,7.058l-5.9-5.9a3.9,3.9,0,0,0-5.5,0l-5.9,5.9A2.316,2.316,0,0,0,0,8.708v7.635a2.333,2.333,0,0,0,2.333,2.333h14a2.333,2.333,0,0,0,2.333-2.333V8.708A2.316,2.316,0,0,0,17.982,7.058ZM11.666,17.12H7v-3.06a2.333,2.333,0,0,1,4.666,0Zm5.444-.778a.778.778,0,0,1-.778.778H13.221v-3.06a3.889,3.889,0,1,0-7.777,0v3.06H2.333a.778.778,0,0,1-.778-.778V8.708a.784.784,0,0,1,.228-.55l5.9-5.9a2.339,2.339,0,0,1,3.3,0l5.9,5.9a.784.784,0,0,1,.228.548Z" transform="translate(0.25 0.478)" fill="#009a93" stroke="#009a93" stroke-width="0.5"/>
</svg>
